<svg width="82" height="90" viewBox="0 0 82 90" fill="none" xmlns="http://www.w3.org/2000/svg">
    <path d="M57.2161 1.27997C57.7281 0.426636 58.4961 -3.05176e-05 59.5201 -3.05176e-05H79.4881C80.0854 -3.05176e-05 80.5547 0.170636 80.8961 0.511971C81.2374 0.853305 81.4081 1.32264 81.4081 1.91997V87.68C81.4081 88.2773 81.2374 88.7466 80.8961 89.088C80.5547 89.4293 80.0854 89.6 79.4881 89.6H59.2641C58.6667 89.6 58.1974 89.4293 57.8561 89.088C57.5147 88.7466 57.3441 88.2773 57.3441 87.68V41.216C57.3441 40.8746 57.2587 40.704 57.0881 40.704C56.9174 40.6186 56.7467 40.704 56.5761 40.96L47.8721 55.168C47.3601 56.0213 46.5921 56.448 45.5681 56.448H35.8401C34.8161 56.448 34.0481 56.0213 33.5361 55.168L24.8321 40.96C24.6614 40.704 24.4907 40.6186 24.3201 40.704C24.1494 40.704 24.0641 40.8746 24.0641 41.216V87.68C24.0641 88.2773 23.8934 88.7466 23.5521 89.088C23.2107 89.4293 22.7414 89.6 22.1441 89.6H1.92006C1.32272 89.6 0.85339 89.4293 0.512057 89.088C0.170723 88.7466 5.67436e-05 88.2773 5.67436e-05 87.68V1.91997C5.67436e-05 1.32264 0.170723 0.853305 0.512057 0.511971C0.85339 0.170636 1.32272 -3.05176e-05 1.92006 -3.05176e-05H21.8881C22.9121 -3.05176e-05 23.6801 0.426636 24.1921 1.27997L40.3201 27.264C40.5761 27.776 40.8321 27.776 41.0881 27.264L57.2161 1.27997Z" fill="#11ba81"/>
</svg>